Coordinates
version=1
nRows=7
nColumns=63
inDegrees=yes

Units are S.I. units (second, meters, Newtons, ...)
If the header above contains a line with 'inDegrees', this indicates whether rotational values are in degrees (yes) or radians (no).

endheader
time	pelvis_tilt	pelvis_list	pelvis_rotation	pelvis_tx	pelvis_ty	pelvis_tz	hip_flexion_r	hip_adduction_r	hip_rotation_r	knee_angle_r	knee_angle_r_beta	ankle_angle_r	subtalar_angle_r	mtp_angle_r	hip_flexion_l	hip_adduction_l	hip_rotation_l	knee_angle_l	knee_angle_l_beta	ankle_angle_l	subtalar_angle_l	mtp_angle_l	L5_S1_Flex_Ext	L5_S1_Lat_Bending	L5_S1_axial_rotation	L4_L5_Flex_Ext	L4_L5_Lat_Bending	L4_L5_axial_rotation	L3_L4_Flex_Ext	L3_L4_Lat_Bending	L3_L4_axial_rotation	L2_L3_Flex_Ext	L2_L3_Lat_Bending	L2_L3_axial_rotation	L1_L2_Flex_Ext	L1_L2_Lat_Bending	L1_L2_axial_rotation	L1_T12_Flex_Ext	L1_T12_Lat_Bending	L1_T12_axial_rotation	Abs_r3	Abs_r2	Abs_r1	Abs_t1	Abs_t2	neck_flexion	neck_bending	neck_rotation	arm_flex_r	arm_add_r	arm_rot_r	elbow_flex_r	pro_sup_r	wrist_flex_r	wrist_dev_r	arm_flex_l	arm_add_l	arm_rot_l	elbow_flex_l	pro_sup_l	wrist_flex_l	wrist_dev_l
      1.51666667	      3.42840883	     -1.97627295	    103.36588042	      0.27067715	      0.78807142	      0.90628439	     -0.92856433	      1.20657386	     -5.25740390	      2.53850970	      0.04430535	     28.58295357	      6.02337199	      0.00000000	      1.75288296	     -6.35220499	      5.79236571	      4.91235109	      0.08573670	     32.43655123	      6.74732055	      0.00000000	     -0.09709591	      0.00695514	      0.50422660	     -0.18031682	      0.00925033	      0.53574076	     -0.15951887	      0.01691072	      0.53574076	     -0.11097092	      0.01691072	      0.44119827	     -0.09016326	      0.01418292	      0.40968411	     -0.05548060	      0.01077351	      0.37816995	     -0.69354639	      0.07867790	      2.80435707	      0.00000000	      0.00000000	     16.45931425	      7.64787498	     -5.53084168	     42.72828468	    -10.67371202	    -21.61026011	     96.64739862	     88.28363054	    -22.78643157	     -7.02146343	     98.20712196	    -57.17419637	     83.63653985	    102.27342901	     78.41990072	     -7.52220938	      5.91954442
      1.53333333	      3.81346246	     -2.10889858	    103.97601455	      0.26748385	      0.78787060	      0.90808960	     -0.78955687	      1.40247347	     -5.55600135	      2.31951958	      0.04048325	     28.20714696	      5.95745494	      0.00000000	      2.21150964	     -6.52041832	      6.31696040	      5.05328669	      0.08819649	     32.51595861	      6.48646264	      0.00000000	     -0.09219804	      0.02731247	      0.52170494	     -0.17122098	      0.03632558	      0.55431150	     -0.15147216	      0.06640754	      0.55431150	     -0.10537314	      0.06640754	      0.45649182	     -0.08561510	      0.05569559	      0.42388527	     -0.05268196	      0.04230701	      0.39127871	     -0.65856137	      0.30896410	      2.90156638	      0.00000000	      0.00000000	     16.33140248	      7.61517190	     -6.60754366	     42.58084030	     -9.14566056	    -21.84458642	     96.87237741	     87.96559700	    -22.62156051	     -8.77885720	     99.65572853	    -57.76793369	     84.54238404	    102.14449958	     79.58681480	     -7.59381156	      5.14512645
      1.55000000	      4.15610902	     -2.21767695	    104.46863003	      0.26428962	      0.78770503	      0.90970763	     -0.68028876	      1.55482604	     -5.77917867	      2.13539123	      0.03726961	     27.75239044	      5.72870690	      0.00000000	      2.58389164	     -6.64073342	      6.74904559	      5.16981508	      0.09023029	     32.50285883	      6.23716374	      0.00000000	     -0.09519786	      0.05299580	      0.47834554	     -0.17679195	      0.07048441	      0.50824213	     -0.15640056	      0.12885398	      0.50824213	     -0.10880163	      0.12885398	      0.41855234	     -0.08840073	      0.10806903	      0.38865575	     -0.05439606	      0.08209049	      0.35875915	     -0.67998879	      0.59949904	      2.66041437	      0.00000000	      0.00000000	     16.25296628	      7.51443025	     -6.78839621	     42.58369843	     -7.30662789	    -21.17628906	     96.90261040	     87.59430061	    -22.69028604	    -10.48218316	    101.12166292	    -58.81999540	     85.59337567	    102.15831211	     79.99741288	     -8.38392373	      4.56931360
      1.56666667	      4.40896171	     -2.32160620	    105.07997323	      0.26113564	      0.78766872	      0.91103552	     -0.62334806	      1.63450461	     -5.78830538	      1.96455630	      0.03428798	     27.12834668	      4.90346935	      0.00000000	      2.93858913	     -6.67427657	      7.17230217	      5.30097638	      0.09251949	     32.45713431	      6.18955565	      0.00000000	     -0.10108941	      0.07377310	      0.38285647	     -0.18773315	      0.09811822	      0.40678500	     -0.16607980	      0.17937191	      0.40678500	     -0.11553509	      0.17937191	      0.33499941	     -0.09387163	      0.15043810	      0.31107088	     -0.05776249	      0.11427453	      0.28714235	     -0.72207156	      0.83453604	      2.12933281	      0.00000000	      0.00000000	     16.15304843	      7.58422505	     -6.27096744	     42.52904651	     -5.37732650	    -19.89677185	     96.87577493	     87.03612823	    -23.00018757	    -12.25346177	    102.16943575	    -60.00251333	     86.36821577	    102.17752551	     77.18375944	     -9.60849957	      4.44446582
      1.58333333	      4.53429378	     -2.47593707	    105.83656236	      0.25778194	      0.78778352	      0.91202639	     -0.55547277	      1.57058669	     -6.13459769	      1.86573055	      0.03256314	     26.50743221	      4.22722671	      0.00000000	      3.33163252	     -6.56512284	      7.39674523	      5.45528151	      0.09521262	     32.44066417	      6.70780050	      0.00000000	     -0.09792598	      0.09229989	      0.24861587	     -0.18185834	      0.12275885	      0.26415437	     -0.16088260	      0.22441795	      0.26415437	     -0.11191961	      0.22441795	      0.21753889	     -0.09093407	      0.18821794	      0.20200040	     -0.05595491	      0.14297253	      0.18646191	     -0.69947551	      1.04411483	      1.38272690	      0.00000000	      0.00000000	     15.78126195	      6.69489419	     -5.82157731	     42.43034913	     -3.31176701	    -18.57082923	     96.85171982	     86.94114543	    -22.54787609	    -13.52754075	    101.55219420	    -61.51031756	     85.19334726	    102.40722785	     73.97294852	    -10.81296252	      5.11679360
      1.60000000	      4.61204220	     -2.56796115	    106.63805536	      0.25510875	      0.78800555	      0.91275805	     -0.61211604	      1.56166197	     -5.62209009	      1.66331502	      0.02903032	     25.65488300	      2.31019981	      0.00000000	      3.71488104	     -6.52165494	      6.45251015	      5.69563186	      0.09940753	     32.63975450	      8.87875962	      0.00000000	     -0.10560356	      0.10625165	      0.13050977	     -0.19611637	      0.14131470	      0.13866663	     -0.17349609	      0.25834026	      0.13866663	     -0.12069431	      0.25834026	      0.11419605	     -0.09806347	      0.21666837	      0.10603919	     -0.06034187	      0.16458381	      0.09788232	     -0.75431567	      1.20193993	      0.72585617	      0.00000000	      0.00000000	     15.41119009	      6.31041344	     -4.92230524	     42.45699685	     -1.21779767	    -17.42631473	     96.66310055	     86.94415268	    -22.37601061	    -14.74656813	    100.45944967	    -63.06192178	     83.85968052	    102.66913284	     61.47135745	    -11.23784886	      4.48353284
      1.61666667	      4.53582941	     -2.67388574	    107.54821261	      0.25237973	      0.78828706	      0.91309363	     -0.69534976	      1.39071447	     -5.79834666	      1.53262927	      0.02674943	     25.19310807	      1.34922131	      0.00000000	      4.03816267	     -6.29507631	      6.11798037	      5.86059948	      0.10228676	     32.67112653	     10.46544252	      0.00000000	     -0.10382759	      0.11355247	     -0.00298358	     -0.19281823	      0.15102479	     -0.00317006	     -0.17057836	      0.27609148	     -0.00317006	     -0.11866456	      0.27609148	     -0.00261064	     -0.09641430	      0.23155620	     -0.00242416	     -0.05932709	      0.17589278	     -0.00223769	     -0.74163013	      1.28452829	     -0.01659380	      0.00000000	      0.00000000	     14.82556817	      5.60191490	     -4.00564364	     42.68187343	      0.95812549	    -16.57164481	     96.00845609	     87.28936545	    -21.61448080	    -15.81363231	     97.27200261	    -64.84615217	     79.84606611	    103.13779172	     53.52334099	    -11.04401227	      4.40732660
